<?xml version="1.0" standalone="no"?>
<!DOCTYPE svg PUBLIC "-//W3C//DTD SVG 20010904//EN"
 "http://www.w3.org/TR/2001/REC-SVG-20010904/DTD/svg10.dtd">
<svg version="1.0" xmlns="http://www.w3.org/2000/svg"
 width="600.000000pt" height="600.000000pt" viewBox="0 0 600.000000 600.000000"
 preserveAspectRatio="xMidYMid meet">

<g transform="translate(0.000000,600.000000) scale(0.100000,-0.100000)"
fill="#000000" stroke="none">
<path d="M2755 5720 c-644 -65 -1216 -330 -1673 -774 -677 -659 -967 -1575
-786 -2489 79 -403 245 -771 503 -1117 93 -125 361 -402 476 -492 405 -318
840 -505 1355 -585 162 -25 568 -25 730 0 353 55 673 161 956 318 489 272 880
675 1131 1164 190 373 284 732 300 1150 17 466 -86 917 -307 1342 -344 663
-956 1168 -1675 1381 -117 35 -267 67 -409 88 -123 18 -478 26 -601 14z m640
-174 c144 -23 373 -82 500 -128 260 -94 566 -271 775 -446 191 -160 395 -393
534 -612 134 -210 272 -550 330 -811 78 -353 78 -777 0 -1129 -79 -355 -244
-711 -467 -1010 -82 -108 -337 -370 -442 -452 -645 -506 -1476 -682 -2275
-483 -350 87 -643 229 -950 459 -110 82 -350 317 -436 426 -162 205 -322 489
-408 723 -48 130 -100 331 -128 492 -19 114 -22 165 -22 410 0 307 10 399 72
646 117 461 370 894 714 1224 393 377 916 627 1464 699 148 20 598 15 739 -8z"/>
<path d="M2805 5068 c-790 -89 -1471 -612 -1760 -1351 -97 -249 -138 -471
-138 -752 0 -348 69 -641 220 -938 105 -205 214 -357 378 -526 351 -361 800
-583 1299 -642 130 -15 472 -6 591 15 457 84 851 290 1171 612 425 427 654
1042 606 1626 -44 534 -258 989 -640 1360 -348 337 -764 536 -1242 593 -127
16 -362 17 -485 3z m107 -260 l3 -203 90 0 90 0 3 204 2 203 88 -6 c428 -34
819 -186 1148 -448 l75 -59 -145 -141 c-81 -77 -146 -145 -146 -152 0 -6 27
-38 59 -70 l60 -59 145 139 c80 76 146 143 146 148 0 6 -10 22 -22 36 -13 15
6 -3 40 -39 236 -244 426 -601 502 -941 24 -107 50 -300 50 -372 l0 -48 -202
-2 -203 -3 0 -85 0 -85 200 -5 200 -5 -3 -45 c-5 -72 -32 -227 -58 -329 -91
-350 -294 -696 -556 -946 -40 -38 -56 -52 -35 -30 20 23 37 44 37 49 0 13
-272 296 -285 296 -6 0 -37 -27 -70 -60 l-59 -60 39 -42 c100 -109 241 -248
249 -248 5 0 19 8 30 17 20 17 20 17 7 0 -20 -26 -182 -145 -271 -200 -90 -55
-277 -145 -378 -181 -160 -57 -374 -101 -543 -113 l-99 -6 -2 204 -3 204 -90
0 -90 0 -3 -202 c-2 -168 -5 -203 -17 -203 -55 0 -266 36 -377 64 -319 81
-603 232 -857 456 l-79 70 146 142 c81 79 149 147 151 152 5 12 -112 127 -126
124 -14 -3 -280 -265 -286 -281 -2 -6 -35 32 -74 84 -234 312 -368 658 -406
1051 l-4 48 201 2 201 3 0 90 0 90 -204 3 -203 2 6 88 c32 406 169 771 412
1092 40 52 84 106 98 120 l27 24 127 -127 c70 -70 132 -127 137 -127 15 0 115
103 115 118 0 8 -54 70 -120 139 -66 68 -120 128 -120 133 0 14 137 122 245
193 262 171 572 285 875 321 63 8 118 14 122 15 4 1 9 -90 10 -201z"/>
<path d="M2912 4438 c-17 -17 -17 -1359 0 -1376 16 -16 160 -16 176 0 17 17
17 1359 0 1376 -16 16 -160 16 -176 0z"/>
<path d="M3314 2987 c-3 -8 -4 -47 -2 -88 l3 -74 435 0 435 0 0 85 0 85 -433
3 c-356 2 -433 0 -438 -11z"/>
</g>
</svg>
